<svg xmlns="http://www.w3.org/2000/svg" viewBox="0 0 64 64">
  <rect width="64" height="64" rx="14" fill="#0a0820"/>
  <g transform="translate(8 13) scale(0.375)" fill="none" stroke="#a78bfa" stroke-width="9" stroke-linecap="round" stroke-linejoin="round">
    <path d="M65 22 C 48 11, 22 11, 9 19 L 9 78 C 22 70, 48 70, 65 80"/>
    <path d="M65 22 C 82 11, 108 11, 121 19 L 121 78 C 108 70, 82 70, 65 80"/>
    <line x1="65" y1="22" x2="65" y2="80"/>
  </g>
  <path transform="translate(44 5) scale(0.32)" fill="#f1eefc" d="M20 3 L23.5 16.5 L37 20 L23.5 23.5 L20 37 L16.5 23.5 L3 20 L16.5 16.5 Z"/>
  <circle cx="10" cy="10" r="1.6" fill="#f1eefc" opacity="0.8"/>
</svg>
